<svg width="39" height="35" viewBox="0 0 39 35" fill="none" xmlns="http://www.w3.org/2000/svg">
<g style="mix-blend-mode:multiply">
<path fill-rule="evenodd" clip-rule="evenodd" d="M37.4914 13.8806C35.4489 5.53811 30.6764 -2.12343 20.1292 0.537302C9.82398 3.13698 -9.70211 8.55471 5.71968 26.3493C11.0456 32.4947 20.1292 34.2948 27.1408 34.2949C34.1524 34.295 40.5372 26.3208 37.4914 13.8806ZM22.6186 24.978C23.1983 25.5698 24.1481 25.5798 24.74 25.0002C25.332 24.4206 25.3419 23.471 24.7622 22.8792L18.1434 16.122L24.7408 9.65373C25.3323 9.07376 25.3416 8.12417 24.7615 7.53275C24.1814 6.94133 23.2316 6.93205 22.64 7.51201L14.9723 15.0297L13.902 16.0791L14.9509 17.1499L22.6186 24.978Z" fill="#CED6E9"/>
</g>
</svg>
